<svg xmlns="http://www.w3.org/2000/svg"  viewBox="0 0 100 100" width="100px" height="100px"><path d="M90,58.5v-40c0-4.687-3.813-8.5-8.5-8.5h-59c-4.687,0-8.5,3.813-8.5,8.5	V58l7,6l0.235,2.895c-1.447,0.844-2.561,2.226-3.016,3.93l-4,15c-0.521,1.951-0.104,4.034,1.126,5.635	C16.576,93.062,18.48,94,20.5,94h63c2.02,0,3.924-0.938,5.154-2.54c1.23-1.601,1.646-3.684,1.126-5.635l-4-15	c-0.454-1.704-1.568-3.086-3.016-3.93C86.852,66.281,90,62.756,90,58.5z" opacity=".35"/><path fill="#f2f2f2" d="M88,56.5v-40c0-4.687-3.813-8.5-8.5-8.5h-59c-4.687,0-8.5,3.813-8.5,8.5v40	c0,4.256,3.148,7.781,7.235,8.395c-1.447,0.844-2.561,2.226-3.016,3.93l-4,15c-0.521,1.951-0.104,4.034,1.126,5.635	C14.576,91.062,16.48,92,18.5,92h63c2.02,0,3.924-0.938,5.154-2.54c1.23-1.601,1.646-3.684,1.126-5.635l-4-15	c-0.454-1.704-1.568-3.086-3.016-3.93C84.852,64.281,88,60.756,88,56.5z"/><polygon fill="#9ba7c5" points="77.5,70.5 22.5,70.5 18.5,85.5 81.5,85.5"/><polygon fill="#707cc0" points="59.5,64.5 59.5,58.5 40.5,58.5 40.5,64.5 36.5,64.5 36.5,72 63.5,72 63.5,64.5"/><rect width="19" height="3.5" x="40.5" y="58.5" fill="#40396e" opacity=".35"/><path fill="#d9eeff" d="M81.5,16.5c0-1.105-0.896-2-2-2h-59c-1.105,0-2,0.895-2,2V56h63V16.5z"/><polygon fill="#d9eeff" points="65,81 75.643,81 74.043,75 65,75"/><polygon fill="#d9eeff" points="62,75 25.957,75 24.357,81 62,81"/><path fill="#40396e" d="M79.5,58.5h-59c-1.105,0-2-0.895-2-2V54h63v2.5C81.5,57.605,80.605,58.5,79.5,58.5z"/><g><path fill="#40396e" d="M79.5,60h-59c-1.93,0-3.5-1.57-3.5-3.5v-40c0-1.93,1.57-3.5,3.5-3.5h59c1.93,0,3.5,1.57,3.5,3.5v40 C83,58.43,81.43,60,79.5,60z M20.5,16c-0.275,0-0.5,0.224-0.5,0.5v40c0,0.276,0.225,0.5,0.5,0.5h59c0.275,0,0.5-0.224,0.5-0.5v-40 c0-0.276-0.225-0.5-0.5-0.5H20.5z"/><path fill="#40396e" d="M81.5,87h-63c-0.466,0-0.905-0.217-1.189-0.586c-0.284-0.37-0.38-0.85-0.26-1.301l4-15 C21.226,69.457,21.82,69,22.5,69H35v-4.5c0-0.829,0.672-1.5,1.5-1.5H39v-4.5c0-0.829,0.672-1.5,1.5-1.5h19 c0.828,0,1.5,0.671,1.5,1.5V63h2.5c0.828,0,1.5,0.671,1.5,1.5V69h12.5c0.68,0,1.274,0.457,1.449,1.113l4,15 c0.12,0.451,0.024,0.931-0.26,1.301C82.405,86.783,81.966,87,81.5,87z M20.452,84h59.096l-3.2-12H63.5c-0.828,0-1.5-0.671-1.5-1.5 V66h-2.5c-0.828,0-1.5-0.671-1.5-1.5V60H42v4.5c0,0.829-0.672,1.5-1.5,1.5H38v4.5c0,0.829-0.672,1.5-1.5,1.5H23.652L20.452,84z"/></g></svg>