<svg xmlns="http://www.w3.org/2000/svg"  viewBox="0 0 256 256" width="64px" height="64px"><path fill="#A3A09D" d="M135.07,95.978c-4.556,1.722-9.584,1.722-14.141,0L52.883,70.262v60.935h150.235V70.262L135.07,95.978z"/><polygon fill="#827F7E" points="183.117,77.82 183.117,131.196 203.117,131.196 203.117,70.262"/><path fill="#725246" d="M120.93,95.978L18.356,57.214c-4.31-1.629-4.31-7.725,0-9.354L120.93,9.095 c4.556-1.722,9.584-1.722,14.141,0l102.573,38.764c4.31,1.629,4.31,7.725,0,9.354L135.07,95.978 C130.514,97.7,125.486,97.7,120.93,95.978z"/><ellipse cx="128" cy="52.537" fill="#808285" rx="8.5" ry="6.139"/><path fill="#FCC171" d="M187.605,99.373h-1.253V85.424c0-0.711-0.378-1.369-0.992-1.728l-56.352-32.887 c-0.952-0.557-2.178-0.235-2.735,0.719c-0.557,0.954-0.234,2.179,0.72,2.736l55.359,32.308v12.8h-1.253 c-2.502,0-4.53,2.028-4.53,4.53v18.429c0,0.834,0.676,1.51,1.51,1.51h12.545c0.834,0,1.51-0.676,1.51-1.51v-18.429 C192.134,101.401,190.106,99.373,187.605,99.373z"/><g><path fill="#6EA6AF" d="M242,248.196H14c-2.761,0-5-2.239-5-5v-56.333c0-2.761,2.239-5,5-5h228c2.761,0,5,2.239,5,5v56.333 C247,245.958,244.761,248.196,242,248.196z"/><path fill="#8DC8D8" d="M193,231.196H63c-2.761,0-5-2.239-5-5v-22.333c0-2.761,2.239-5,5-5h130c2.761,0,5,2.239,5,5v22.333 C198,228.958,195.761,231.196,193,231.196z"/><rect width="14.333" height="66.333" x="25.833" y="181.863" fill="#8DC8D8"/><rect width="14.333" height="66.333" x="215.833" y="181.863" fill="#8DC8D8"/></g><g><path fill="#BA9DD6" d="M230.667,131.196h-182c-13.991,0-25.333,11.342-25.333,25.333v0c0,13.991,11.342,25.333,25.333,25.333 h182c1.105,0,2-0.895,2-2v-46.667C232.667,132.092,231.771,131.196,230.667,131.196z"/><path fill="#FEDBB0" d="M232.667,141.196h-184c-8.468,0-15.333,6.865-15.333,15.333v0c0,8.468,6.865,15.333,15.333,15.333h184 V141.196z"/><path fill="#E8C197" d="M232.667,149.53v-4H37.998c-1.194,1.158-2.195,2.508-2.963,4H232.667z"/><path fill="#E8C197" d="M232.667,154.53H33.478c-0.086,0.656-0.145,1.32-0.145,2s0.059,1.344,0.145,2h199.188V154.53z"/><path fill="#E8C197" d="M232.667,163.53H35.035c0.768,1.492,1.769,2.842,2.963,4h194.669V163.53z"/></g><g><path fill="#422618" d="M242,250.196H14c-3.859,0-7-3.14-7-7v-56.333c0-3.86,3.141-7,7-7h20.443 c-7.856-4.807-13.11-13.468-13.11-23.333c0-15.072,12.262-27.333,27.334-27.333h2.216V71.644L17.649,59.085 c-2.749-1.039-4.525-3.609-4.525-6.548s1.776-5.509,4.525-6.548L120.223,7.224c5.016-1.896,10.539-1.895,15.555,0l102.573,38.765 c2.749,1.039,4.525,3.609,4.525,6.548s-1.776,5.509-4.525,6.548l-33.233,12.56v57.552h25.55c2.206,0,4,1.794,4,4v46.667H242 c3.859,0,7,3.14,7,7v56.333C249,247.056,245.859,250.196,242,250.196z M14,183.863c-1.654,0-3,1.346-3,3v56.333 c0,1.654,1.346,3,3,3h228c1.654,0,3-1.346,3-3v-56.333c0-1.654-1.346-3-3-3h-11.333c-1.104,0-2-0.896-2-2s0.896-2,2-2v-46.667 h-27.55c-1.104,0-2-0.896-2-2V70.262c0-0.832,0.515-1.577,1.293-1.871l34.526-13.048c1.8-0.68,1.939-2.32,1.939-2.806 s-0.14-2.126-1.939-2.807L134.363,10.966c-4.104-1.551-8.624-1.551-12.727,0L19.063,49.73c-1.8,0.68-1.939,2.32-1.939,2.806 s0.14,2.126,1.939,2.807L53.59,68.391c0.778,0.294,1.293,1.039,1.293,1.871v60.935c0,1.104-0.896,2-2,2h-4.216 c-12.866,0-23.334,10.467-23.334,23.333s10.468,23.333,23.334,23.333c1.104,0,2,0.896,2,2s-0.896,2-2,2H14z"/></g></svg>