<svg xmlns="http://www.w3.org/2000/svg"  viewBox="0 0 480.003 480.003" width="60px" height="60px"><path fill="#eef7ff" d="M462.579,354.002h-27.578v-260c0-17.67-14.33-32-32-32h-326c-17.67,0-32,14.33-32,32v260H17.423	c-4.951,0-8.733,4.418-7.971,9.31c4.92,31.48,32.04,54.69,63.91,54.69h333.28c31.87,0,58.99-23.21,63.91-54.69	C471.313,358.42,467.53,354.002,462.579,354.002z"/><path fill="#585966" d="M462.579,354.002c4.951,0,8.735,4.418,7.972,9.31c-4.912,31.481-32.04,54.69-63.91,54.69H73.362	c-31.87,0-58.998-23.209-63.91-54.69c-0.763-4.892,3.02-9.31,7.971-9.31h130.769c8.29,0,16.34,2.82,22.81,8	c6.33,5.07,14.34,8,22.81,8h92.38c8.29,0,16.34-2.82,22.81-8c6.33-5.07,14.34-8,22.81-8H462.579z"/><path fill="#cbe3fa" d="M435.002,94.002v260h-103.19c-8.47,0-16.48,2.93-22.81,8c-6.47,5.18-14.52,8-22.81,8	c0,0-92.666-0.001-92.808-0.002c-9.135-0.098-10.75-13.091-1.951-15.548c39.862-11.131,86.308-33.594,122.859-78.549	c43.949-54.057,61.193-125.379,50.141-195.395c-1.534-9.716,5.959-18.505,15.795-18.505h22.774	C420.675,62.002,435.002,76.328,435.002,94.002z"/><path fill="#6e6f80" d="M55.06,396.388c4.28,8.897-5.564,17.867-14.107,12.917c-16.429-9.518-28.396-26.105-31.502-45.994	c-0.792-4.755,2.939-9.31,7.971-9.31h130.769c13.454,0,11.165,15,1.931,15H57.422c-5.031,0-8.762,4.554-7.97,9.31	C50.448,384.722,52.367,390.79,55.06,396.388z"/><path fill="#6e6f80" d="M455.752,369.002h-83.94c-8.47,0-16.48,2.93-22.81,8c-6.47,5.18-14.52,8.001-22.81,8	c-96.962-0.014-92.604,0.074-95.172-0.082c-9.569-0.579-9.017-14.918,0.57-14.918h54.603c8.29,0,16.34-2.82,22.81-8	c6.33-5.07,14.34-8,22.81-8h123.94C465.823,354.002,465.65,369.002,455.752,369.002z"/><path fill="#80aaff" d="M472.002,160.722v94.56c0,9.79-7.93,17.72-17.72,17.72H25.722c-9.79,0-17.72-7.93-17.72-17.72v-94.56	c0-9.79,7.93-17.72,17.72-17.72h428.56C464.072,143.002,472.002,150.932,472.002,160.722z"/><path fill="#9cbcff" d="M457.299,143.257c17.874,3.066,15.181,29.744-2.953,29.744H65.722c-9.786,0-17.72,7.934-17.72,17.72	v66.28c0,8.837-7.163,16-16,16h-6.28c-9.786,0-17.72-7.934-17.72-17.72v-94.56c0-9.786,7.934-17.72,17.72-17.72	C485.592,143.002,454.98,142.86,457.299,143.257z"/><path d="M265.116,193.502c-2.209-3.826-7.102-5.135-10.928-2.928l-6.187,3.572v-7.144c0-4.418-3.582-8-8-8s-8,3.582-8,8v7.144 l-6.187-3.572c-3.826-2.209-8.719-0.898-10.928,2.928c-2.209,3.826-0.898,8.719,2.928,10.928l6.187,3.572l-6.187,3.572 c-3.826,2.209-5.137,7.102-2.928,10.928c2.213,3.832,7.106,5.134,10.928,2.928l6.187-3.572v7.144c0,4.418,3.582,8,8,8s8-3.582,8-8 v-7.144l6.187,3.572c3.809,2.2,8.709,0.915,10.928-2.928c2.209-3.826,0.898-8.719-2.928-10.928l-6.187-3.572l6.187-3.572 C266.014,202.221,267.325,197.328,265.116,193.502z"/><path d="M185.116,193.502c-2.209-3.826-7.103-5.135-10.928-2.928l-6.187,3.572v-7.144c0-4.418-3.582-8-8-8s-8,3.582-8,8v7.144 l-6.187-3.572c-3.826-2.209-8.719-0.898-10.928,2.928c-2.209,3.826-0.898,8.719,2.928,10.928l6.187,3.572l-6.187,3.572 c-3.826,2.209-5.137,7.102-2.928,10.928c2.213,3.832,7.106,5.134,10.928,2.928l6.187-3.572v7.144c0,4.418,3.582,8,8,8s8-3.582,8-8 v-7.144l6.187,3.572c3.809,2.2,8.709,0.915,10.928-2.928c2.209-3.826,0.898-8.719-2.928-10.928l-6.187-3.572l6.187-3.572 C186.014,202.221,187.325,197.328,185.116,193.502z"/><path d="M105.116,193.502c-2.209-3.826-7.102-5.135-10.928-2.928l-6.187,3.572v-7.144c0-4.418-3.582-8-8-8s-8,3.582-8,8v7.144 l-6.187-3.572c-3.826-2.209-8.719-0.898-10.928,2.928c-2.209,3.826-0.898,8.719,2.928,10.928l6.187,3.572l-6.187,3.572 c-3.826,2.209-5.137,7.102-2.928,10.928c2.213,3.832,7.106,5.134,10.928,2.928l6.187-3.572v7.144c0,4.418,3.582,8,8,8s8-3.582,8-8 v-7.144l6.187,3.572c3.809,2.2,8.709,0.915,10.928-2.928c2.209-3.826,0.898-8.719-2.928-10.928l-6.187-3.572l6.187-3.572 C106.014,202.221,107.325,197.328,105.116,193.502z"/><path d="M345.116,193.502c-2.209-3.826-7.103-5.135-10.928-2.928l-6.187,3.572v-7.144c0-4.418-3.582-8-8-8s-8,3.582-8,8v7.144 l-6.187-3.572c-3.826-2.209-8.719-0.898-10.928,2.928c-2.209,3.826-0.898,8.719,2.928,10.928l6.187,3.572l-6.187,3.572 c-3.826,2.209-5.137,7.102-2.928,10.928c2.213,3.832,7.106,5.134,10.928,2.928l6.187-3.572v7.144c0,4.418,3.582,8,8,8s8-3.582,8-8 v-7.144l6.187,3.572c3.809,2.2,8.709,0.915,10.928-2.928c2.209-3.826,0.898-8.719-2.928-10.928l-6.187-3.572l6.187-3.572 C346.014,202.221,347.325,197.328,345.116,193.502z"/><path d="M400.002,179.002c-4.418,0-8,3.582-8,8v7.144l-6.187-3.572c-3.827-2.209-8.719-0.898-10.928,2.928 c-2.209,3.826-0.898,8.719,2.928,10.928l6.187,3.572l-6.187,3.572c-3.826,2.209-5.137,7.102-2.928,10.928 c2.213,3.832,7.106,5.134,10.928,2.928l6.187-3.572v7.144c0,4.418,3.582,8,8,8s8-3.582,8-8v-7.144l6.187,3.572 c3.809,2.2,8.709,0.915,10.928-2.928c2.209-3.826,0.898-8.719-2.928-10.928l-6.187-3.572l6.187-3.572 c3.826-2.209,5.137-7.102,2.928-10.928c-2.209-3.826-7.102-5.135-10.928-2.928l-6.187,3.572v-7.144 C408.002,182.583,404.42,179.002,400.002,179.002z"/><path d="M435.002,320.227c4.418,0,8-3.582,8-8v-31.226h11.281c14.181,0,25.719-11.538,25.719-25.719V160.72 c0-14.181-11.538-25.719-25.719-25.719h-11.281v-41c0-22.056-17.944-40-40-40h-326c-22.056,0-40,17.944-40,40v7.968 c0,4.418,3.582,8,8,8s8-3.582,8-8v-7.968c0-13.234,10.766-24,24-24h326c13.234,0,24,10.766,24,24v49c0,4.418,3.582,8,8,8h19.281 c5.359,0,9.719,4.36,9.719,9.719v94.563c0,5.359-4.36,9.719-9.719,9.719H25.72c-5.359,0-9.719-4.36-9.719-9.719V160.72 c0-5.359,4.36-9.719,9.719-9.719h356.701c4.418,0,8-3.582,8-8s-3.582-8-8-8H25.72c-14.181,0-25.719,11.538-25.719,25.719v94.563 c0,14.181,11.538,25.719,25.719,25.719h11.281v65h-29c-4.906,0-8.66,4.382-7.905,9.231l1.451,9.314 c5.521,35.324,35.975,61.455,71.813,61.455h333.28c35.756,0,66.28-26.048,71.814-61.458l1.45-9.31 c0.754-4.848-2.997-9.231-7.905-9.231H331.808c-10.068,0-19.942,3.464-27.804,9.753c-5.035,4.028-11.36,6.247-17.809,6.247h-92.388 c-6.448,0-12.773-2.219-17.809-6.247c-7.861-6.289-17.736-9.753-27.804-9.753H91.711c-4.418,0-8,3.582-8,8s3.582,8,8,8h56.484 c6.449,0,12.773,2.219,17.809,6.247c7.862,6.289,17.736,9.753,27.804,9.753h92.388c10.068,0,19.942-3.464,27.804-9.753 c5.036-4.028,11.36-6.247,17.809-6.247c137.127,0,130.858-0.041,130.84,0.075c-4.259,27.783-27.894,47.925-56.006,47.925H73.361 c-28.088,0-51.69-20.132-56.017-48h27.657c4.418,0,8-3.582,8-8v-73h374v31.226C427.002,316.646,430.583,320.227,435.002,320.227z"/></svg>